<?xml version="1.0" encoding="utf-8"?>
<!-- Generator: Adobe Illustrator 16.0.4, SVG Export Plug-In . SVG Version: 6.00 Build 0)  -->
<!DOCTYPE svg PUBLIC "-//W3C//DTD SVG 1.1//EN" "http://www.w3.org/Graphics/SVG/1.1/DTD/svg11.dtd">
<svg version="1.1" id="Layer_1" xmlns="http://www.w3.org/2000/svg" xmlns:xlink="http://www.w3.org/1999/xlink" x="0px" y="0px"
	 width="475px" height="150px" viewBox="0 0 475 150" enable-background="new 0 0 475 150" xml:space="preserve">
<g>
	<g>
		<defs>
			<rect id="SVGID_1_" x="7" y="43.623" width="460.6" height="141.657"/>
		</defs>
		<clipPath id="SVGID_2_">
			<use xlink:href="#SVGID_1_"  overflow="visible"/>
		</clipPath>
	</g>
</g>
<path fill="#414142" d="M113.985,49.573c3.348,0,6.104,2.713,6.104,6.104c0,3.35-2.756,6.146-6.147,6.146s-6.104-2.755-6.104-6.146
	C107.837,52.286,110.594,49.573,113.985,49.573z"/>
<g>
	<path fill="#C7C8CA" d="M367.42,111.073h7.22v1.4c-2.157-0.059-3.997,0.146-5.519,0.611s-2.793,1.211-3.817,2.23
		c-1.023,1.021-1.839,2.303-2.448,3.85c-0.608,1.543-1.079,3.396-1.411,5.553h-0.996v-12.244h-11.452v-1.4h11.452V81.687
		c0-1.808-0.345-3.047-1.037-3.716c-0.691-0.672-1.702-1.007-3.029-1.007c-1.05,0-1.95,0.22-2.698,0.656
		c-0.746,0.438-1.382,0.947-1.908,1.53c-0.525,0.583-0.939,1.195-1.244,1.837c-0.304,0.641-0.512,1.137-0.623,1.486l-1.244-0.262
		c0.166-0.525,0.443-1.168,0.829-1.924c0.388-0.759,0.942-1.487,1.66-2.188c0.72-0.698,1.618-1.297,2.697-1.792
		s2.394-0.744,3.942-0.744c2.933,0,5.27,0.568,7.013,1.705c1.743,1.138,2.614,3.163,2.614,6.079V111.073z"/>
	<path fill="#C7C8CA" d="M340.415,111.073h6.972v1.4h-6.972c-1.328,0-2.614,0.103-3.859,0.306s-2.282,0.743-3.112,1.618v-10.319
		h-0.166c-0.221,0.99-0.594,2.083-1.12,3.278c-0.525,1.195-1.216,2.318-2.075,3.367c-0.857,1.051-1.895,1.924-3.111,2.625
		c-1.217,0.7-2.684,1.049-4.398,1.049c-1.549,0-2.85-0.48-3.901-1.443c-1.05-0.961-1.577-2.201-1.577-3.718
		c0-1.167,0.32-2.142,0.955-2.929c0.637-0.787,1.591-1.181,2.863-1.181c1.383,0,2.338,0.35,2.863,1.05
		c0.525,0.698,0.788,1.631,0.788,2.798c0,0.991-0.193,1.793-0.581,2.406c-0.387,0.612-0.801,1.062-1.245,1.354
		c0.222,0.175,0.609,0.262,1.162,0.262c0.83,0,1.798-0.35,2.905-1.048c1.106-0.7,2.157-1.765,3.152-3.193
		c0.997-1.429,1.826-3.207,2.49-5.336c0.664-2.127,0.996-4.62,0.996-7.477v-17.93h-7.553v-1.398h21.496v1.398h-6.972V111.073z"/>
	<path fill="#C7C8CA" d="M308.804,111.073h6.64v1.4h-6.64c-1.328,0-2.614,0.103-3.859,0.306s-2.282,0.743-3.112,1.618V78.014h-6.639
		v-1.398h20.25v1.398h-6.64V111.073z M309.551,130.141c0,1.225-0.416,2.273-1.245,3.149c-0.83,0.874-1.825,1.312-2.988,1.312
		c-1.161,0-2.157-0.438-2.987-1.312c-0.83-0.876-1.245-1.925-1.245-3.149s0.415-2.273,1.245-3.148
		c0.83-0.874,1.826-1.312,2.987-1.312c1.163,0,2.158,0.438,2.988,1.312C309.135,127.867,309.551,128.916,309.551,130.141z"/>
	<path fill="#C7C8CA" d="M292.172,89.297h-1.078c-0.166-1.109-0.457-2.377-0.872-3.805c-0.415-1.43-1.05-2.771-1.909-4.023
		c-0.857-1.255-1.991-2.318-3.402-3.192s-3.195-1.312-5.353-1.312c-2.324,0-4.245,0.729-5.769,2.187
		c-1.521,1.457-2.282,3.44-2.282,5.948c0,1.749,0.278,3.089,0.83,4.022c0.554,0.933,1.286,1.646,2.199,2.144
		c0.913,0.494,1.923,0.815,3.03,0.961c1.106,0.146,2.213,0.276,3.318,0.395c1.328,0.174,2.629,0.394,3.9,0.655
		c1.273,0.263,2.407,0.744,3.403,1.443s1.799,1.706,2.407,3.018c0.609,1.312,0.912,3.104,0.912,5.379
		c0,1.574-0.234,3.046-0.705,4.417c-0.47,1.369-1.148,2.564-2.033,3.585s-1.977,1.822-3.277,2.405s-2.752,0.875-4.358,0.875
		c-1.106,0-2.129-0.161-3.07-0.48c-0.94-0.322-1.771-0.672-2.489-1.05c-0.719-0.38-1.314-0.729-1.785-1.049
		c-0.469-0.322-0.815-0.481-1.037-0.481c-0.387,0-0.581,0.612-0.581,1.836v0.7h-1.161l-0.332-10.409h1.078
		c0.166,1.226,0.443,2.42,0.83,3.587c0.388,1.166,0.969,2.186,1.742,3.062c0.775,0.874,1.73,1.574,2.864,2.1
		c1.135,0.523,2.53,0.785,4.19,0.785c2.104,0,3.901-0.598,5.395-1.793c1.494-1.194,2.241-2.928,2.241-5.202
		c0-2.275-0.76-3.88-2.282-4.812c-1.521-0.933-3.664-1.486-6.432-1.661l-2.822-0.175c-3.374-0.234-5.795-1.255-7.262-3.062
		c-1.465-1.808-2.199-4.228-2.199-7.259c0-2.041,0.305-3.892,0.913-5.554c0.609-1.662,1.425-3.077,2.448-4.242
		c1.024-1.167,2.24-2.07,3.651-2.711c1.411-0.642,2.919-0.963,4.523-0.963c1.659,0,3.043,0.19,4.149,0.568
		c1.107,0.381,2.033,0.816,2.781,1.312c0.746,0.495,1.383,0.932,1.907,1.312c0.526,0.379,0.983,0.569,1.37,0.569
		c0.553,0,0.83-0.322,0.83-0.963c0-0.582,0.055-1.342,0.165-2.274h1.245L292.172,89.297z"/>
	<path fill="#C7C8CA" d="M260.379,137.313h6.556v1.398h-6.556c-1.328,0-2.615,0.116-3.859,0.351
		c-1.245,0.231-2.282,0.845-3.112,1.836v-35.422h-0.165c-0.553,1.05-1.217,2.099-1.993,3.148c-0.773,1.05-1.687,2.012-2.738,2.886
		c-1.051,0.875-2.212,1.574-3.486,2.1c-1.271,0.525-2.655,0.787-4.149,0.787c-2.212,0-4.052-0.276-5.519-0.831
		c-1.466-0.555-2.627-1.282-3.485-2.186c-0.857-0.905-1.466-1.954-1.826-3.148c-0.359-1.196-0.539-2.437-0.539-3.718V78.014h-6.557
		v-1.398h20.084v1.398h-6.557v28.6c0,2.449,0.486,4.125,1.453,5.029c0.969,0.904,2.115,1.354,3.443,1.354
		c1.771,0,3.32-0.393,4.648-1.179c1.327-0.789,2.477-1.737,3.443-2.844c0.969-1.107,1.771-2.244,2.406-3.41
		c0.638-1.167,1.15-2.13,1.536-2.887V78.014H247.1v-1.398h19.835v1.398h-6.556V137.313z"/>
	<path fill="#C7C8CA" d="M191.652,81.337c0-0.817-0.137-1.661-0.414-2.536c-0.276-0.874-0.968-1.312-2.076-1.312
		c-0.939,0-1.742,0.35-2.406,1.05c-0.663,0.699-1.299,1.516-1.908,2.448l-0.913-0.699c0.776-1.458,1.743-2.61,2.905-3.455
		c1.161-0.845,2.628-1.269,4.398-1.269c1.938,0,3.568,0.524,4.896,1.575c1.328,1.049,2.131,2.331,2.406,3.848h0.166
		c1.439-1.983,3.112-3.383,5.021-4.198c1.908-0.815,4.246-1.225,7.013-1.225c3.265,0,5.81,0.817,7.636,2.449
		c1.825,1.632,2.738,3.936,2.738,6.91c0,2.448-0.691,4.46-2.074,6.034s-3.113,2.828-5.188,3.761
		c-2.075,0.932-4.328,1.574-6.764,1.924c-2.434,0.351-4.73,0.524-6.889,0.524h-1.577v10.76c0,1.048,0.208,1.893,0.622,2.535
		c0.416,0.641,0.955,1.15,1.619,1.531c0.664,0.378,1.397,0.64,2.199,0.786c0.803,0.146,1.592,0.218,2.365,0.218
		c0.609,0,1.369-0.072,2.281-0.218c0.914-0.146,1.8-0.364,2.656-0.655c0.859-0.294,1.592-0.716,2.199-1.269
		c0.609-0.555,0.913-1.211,0.913-1.969c0-0.523-0.138-0.904-0.415-1.137c-0.276-0.233-0.594-0.481-0.954-0.743
		c-0.359-0.262-0.677-0.611-0.954-1.048c-0.276-0.438-0.415-1.152-0.415-2.145c0-1.049,0.36-1.924,1.079-2.624
		c0.719-0.698,1.633-1.048,2.738-1.048c1.162,0,2.062,0.437,2.697,1.31c0.637,0.876,0.955,2.07,0.955,3.587
		c0,1.106-0.276,2.215-0.83,3.324c-0.553,1.106-1.369,2.112-2.449,3.018c-1.078,0.903-2.406,1.631-3.982,2.186
		c-1.578,0.555-3.416,0.831-5.52,0.831c-1.549,0-3.139-0.219-4.772-0.654c-1.632-0.438-3.112-1.081-4.44-1.925
		c-1.327-0.847-2.42-1.896-3.277-3.149c-0.857-1.254-1.287-2.726-1.287-4.416V81.337z M200.035,95.769
		c1.494,0,3.043-0.059,4.647-0.175c1.604-0.118,3.071-0.481,4.398-1.094c1.328-0.611,2.421-1.561,3.278-2.843
		c0.858-1.282,1.287-3.091,1.287-5.422c0-1.226-0.069-2.362-0.208-3.411c-0.138-1.049-0.415-1.954-0.83-2.712
		s-1.023-1.355-1.825-1.792c-0.802-0.438-1.868-0.656-3.195-0.656c-1.549,0-2.891,0.263-4.025,0.787
		c-1.134,0.524-2.062,1.15-2.78,1.881c-0.719,0.728-1.259,1.457-1.618,2.186c-0.359,0.729-0.54,1.326-0.54,1.794v11.457H200.035z"/>
	<path fill="#C7C8CA" d="M129.907,81.337c0-0.817-0.137-1.661-0.415-2.536c-0.276-0.874-0.967-1.312-2.075-1.312
		c-0.94,0-1.743,0.35-2.407,1.05c-0.664,0.699-1.299,1.516-1.909,2.448l-0.913-0.699c0.775-1.458,1.743-2.61,2.905-3.455
		c1.161-0.845,2.628-1.269,4.398-1.269c1.937,0,3.568,0.524,4.896,1.575c1.328,1.049,2.131,2.331,2.407,3.848h0.166
		c1.439-1.983,3.112-3.383,5.021-4.198c1.909-0.815,4.247-1.225,7.013-1.225c3.266,0,5.81,0.817,7.636,2.449
		c1.824,1.632,2.738,3.936,2.738,6.91c0,2.448-0.691,4.46-2.075,6.034c-1.382,1.574-3.112,2.828-5.187,3.761
		c-2.075,0.932-4.329,1.574-6.764,1.924c-2.434,0.351-4.73,0.524-6.889,0.524h-1.577v10.76c0,1.048,0.207,1.893,0.622,2.535
		c0.415,0.641,0.955,1.15,1.619,1.531c0.664,0.378,1.397,0.64,2.199,0.786c0.803,0.146,1.591,0.218,2.365,0.218
		c0.609,0,1.37-0.072,2.282-0.218c0.913-0.146,1.799-0.364,2.656-0.655c0.859-0.294,1.591-0.716,2.199-1.269
		c0.61-0.555,0.913-1.211,0.913-1.969c0-0.523-0.138-0.904-0.416-1.137c-0.276-0.233-0.593-0.481-0.954-0.743
		c-0.359-0.262-0.677-0.611-0.955-1.048c-0.276-0.438-0.415-1.152-0.415-2.145c0-1.049,0.36-1.924,1.079-2.624
		c0.72-0.698,1.632-1.048,2.739-1.048c1.162,0,2.062,0.437,2.697,1.31c0.637,0.876,0.955,2.07,0.955,3.587
		c0,1.106-0.277,2.215-0.831,3.324c-0.552,1.106-1.368,2.112-2.448,3.018c-1.078,0.903-2.407,1.631-3.983,2.186
		s-3.416,0.831-5.519,0.831c-1.548,0-3.139-0.219-4.772-0.654c-1.631-0.438-3.112-1.081-4.44-1.925
		c-1.328-0.847-2.42-1.896-3.278-3.149c-0.857-1.254-1.286-2.726-1.286-4.416V81.337z M138.289,95.769
		c1.494,0,3.044-0.059,4.648-0.175c1.605-0.118,3.07-0.481,4.398-1.094c1.328-0.611,2.421-1.561,3.278-2.843
		c0.858-1.282,1.287-3.091,1.287-5.422c0-1.226-0.069-2.362-0.208-3.411c-0.138-1.049-0.415-1.954-0.83-2.712
		c-0.415-0.758-1.023-1.355-1.826-1.792c-0.801-0.438-1.867-0.656-3.195-0.656c-1.549,0-2.89,0.263-4.025,0.787
		c-1.133,0.524-2.061,1.15-2.78,1.881c-0.719,0.728-1.258,1.457-1.619,2.186c-0.359,0.729-0.54,1.326-0.54,1.794v11.457H138.289z"/>
	<path fill="#C7C8CA" d="M114.263,137.313h6.639v1.398h-6.639c-1.328,0-2.614,0.116-3.859,0.351
		c-1.245,0.231-2.282,0.845-3.112,1.836V78.014h-6.64v-1.398h20.25v1.398h-6.639V137.313z"/>
	<path fill="#C7C8CA" d="M92.145,137.313h6.64v1.398h-6.64c-1.327,0-2.614,0.116-3.859,0.351c-1.245,0.231-2.282,0.845-3.112,1.836
		V78.014h-6.639v-1.398h20.25v1.398h-6.64V137.313z"/>
	<path fill="#C7C8CA" d="M70.027,111.073h6.64v1.4h-6.64c-1.327,0-2.614,0.103-3.859,0.306c-1.245,0.203-2.282,0.743-3.112,1.618
		V78.014h-6.639v-1.398h20.25v1.398h-6.64V111.073z M70.774,130.141c0,1.225-0.415,2.273-1.245,3.149
		c-0.83,0.874-1.826,1.312-2.988,1.312s-2.158-0.438-2.988-1.312c-0.83-0.876-1.245-1.925-1.245-3.149s0.415-2.273,1.245-3.148
		c0.83-0.874,1.826-1.312,2.988-1.312s2.158,0.438,2.988,1.312C70.36,127.867,70.774,128.916,70.774,130.141z"/>
	<path fill="#C7C8CA" d="M48.143,111.073h6.556v1.4h-6.556c-0.996,0-1.853,0.014-2.573,0.044c-0.718,0.029-1.341,0.102-1.867,0.218
		c-0.525,0.117-0.981,0.306-1.369,0.569c-0.387,0.262-0.775,0.625-1.162,1.093v-8.921h-0.166c-0.552,1.05-1.216,2.099-1.992,3.148
		c-0.773,1.05-1.687,2.012-2.738,2.886c-1.051,0.875-2.212,1.574-3.486,2.1c-1.272,0.525-2.656,0.787-4.149,0.787
		c-2.212,0-4.052-0.276-5.519-0.831c-1.465-0.555-2.627-1.282-3.485-2.186c-0.857-0.905-1.466-1.954-1.826-3.148
		c-0.359-1.196-0.539-2.437-0.539-3.718V78.014h-6.557v-1.398h20.084v1.398h-6.556v28.6c0,2.449,0.485,4.125,1.452,5.029
		c0.969,0.904,2.116,1.354,3.444,1.354c1.771,0,3.319-0.393,4.647-1.179c1.328-0.789,2.477-1.737,3.444-2.844
		c0.969-1.107,1.772-2.244,2.407-3.41c0.637-1.167,1.149-2.13,1.536-2.887V78.014h-6.308v-1.398h19.835v1.398h-6.556V111.073z"/>
</g>
<path fill="#414142" d="M213.299,49.573c3.348,0,6.104,2.713,6.104,6.104c0,3.35-2.756,6.146-6.147,6.146
	c-3.39,0-6.103-2.755-6.103-6.146C207.152,52.286,209.908,49.573,213.299,49.573z"/>
<g>
	<path fill="#414142" d="M43.67,71.271c0,0.869,0.154,1.767,0.465,2.695c0.309,0.929,1.083,1.393,2.322,1.393
		c1.053,0,1.952-0.371,2.695-1.114c0.743-0.745,1.454-1.61,2.137-2.602l1.021,0.743c-0.868,1.549-1.95,2.773-3.251,3.67
		c-1.3,0.897-2.942,1.348-4.924,1.348c-2.169,0-3.996-0.558-5.482-1.673c-1.487-1.116-2.385-2.477-2.694-4.088h-0.186
		c-1.611,2.106-3.483,3.593-5.621,4.459c-2.137,0.867-4.754,1.302-7.851,1.302c-3.656,0-6.503-0.869-8.548-2.603
		c-2.044-1.733-3.066-4.18-3.066-7.34c0-2.601,0.774-4.738,2.323-6.41c1.548-1.672,3.484-3.004,5.807-3.995
		c2.323-0.99,4.845-1.673,7.572-2.044c2.725-0.371,5.296-0.558,7.711-0.558h1.766V43.027c0-1.115-0.233-2.012-0.697-2.694
		c-0.464-0.681-1.069-1.222-1.812-1.625c-0.743-0.402-1.565-0.681-2.462-0.836c-0.898-0.154-1.781-0.232-2.647-0.232
		c-0.682,0-1.533,0.078-2.555,0.232c-1.021,0.156-2.013,0.387-2.973,0.697c-0.961,0.31-1.781,0.759-2.462,1.346
		c-0.682,0.59-1.022,1.287-1.022,2.091c0,0.558,0.154,0.961,0.464,1.208c0.31,0.248,0.665,0.511,1.069,0.79
		c0.402,0.279,0.758,0.65,1.069,1.115c0.309,0.465,0.464,1.224,0.464,2.276c0,1.115-0.404,2.044-1.208,2.788
		c-0.805,0.743-1.827,1.115-3.065,1.115c-1.301,0-2.309-0.464-3.02-1.394c-0.713-0.929-1.068-2.197-1.068-3.809
		c0-1.176,0.309-2.354,0.929-3.531c0.619-1.176,1.533-2.245,2.741-3.206c1.208-0.959,2.694-1.733,4.459-2.322
		c1.765-0.589,3.824-0.883,6.179-0.883c1.733,0,3.515,0.232,5.342,0.697c1.827,0.464,3.484,1.147,4.971,2.044
		c1.486,0.898,2.708,2.014,3.67,3.345c0.959,1.332,1.44,2.896,1.44,4.691V71.271z M34.287,55.941c-1.673,0-3.408,0.062-5.203,0.186
		c-1.797,0.125-3.438,0.512-4.925,1.162c-1.486,0.65-2.71,1.658-3.67,3.02c-0.961,1.363-1.44,3.283-1.44,5.76
		c0,1.301,0.077,2.508,0.233,3.623c0.153,1.116,0.464,2.076,0.929,2.88c0.464,0.807,1.146,1.44,2.044,1.905
		c0.897,0.464,2.09,0.697,3.577,0.697c1.734,0,3.236-0.279,4.506-0.836c1.269-0.557,2.307-1.222,3.112-1.997
		c0.804-0.773,1.409-1.547,1.812-2.323c0.402-0.773,0.604-1.408,0.604-1.905V55.941H34.287z"/>
	<path fill="#414142" d="M61.37,11.809h-7.433v-1.486h7.433c1.486,0,2.927-0.123,4.32-0.372C67.084,9.705,68.245,9.054,69.174,8
		v66.802h7.433v1.487h-22.67v-1.487h7.433V11.809z"/>
	<path fill="#414142" d="M86.316,11.809h-7.433v-1.486h7.433c1.486,0,2.927-0.123,4.32-0.372C92.03,9.705,93.191,9.054,94.12,8
		v66.802h7.433v1.487h-22.67v-1.487h7.433V11.809z"/>
	<path fill="#414142" d="M135.187,39.683h-7.433v-1.487h7.433c1.486,0,2.927-0.107,4.32-0.325c1.394-0.216,2.556-0.79,3.484-1.719
		v38.65h7.433v1.487h-22.67v-1.487h7.433V39.683z M134.35,19.428c0-1.301,0.464-2.416,1.394-3.345
		c0.929-0.929,2.044-1.394,3.345-1.394c1.301,0,2.416,0.464,3.345,1.394c0.93,0.929,1.394,2.043,1.394,3.345
		c0,1.301-0.464,2.415-1.394,3.344c-0.929,0.93-2.043,1.394-3.345,1.394c-1.3,0-2.416-0.464-3.345-1.394
		C134.814,21.843,134.35,20.729,134.35,19.428z"/>
	<path fill="#414142" d="M159.873,39.683h-7.34v-1.487h7.34c1.114,0,2.074-0.015,2.88-0.046c0.804-0.031,1.501-0.108,2.091-0.233
		c0.588-0.123,1.099-0.325,1.533-0.604c0.432-0.278,0.866-0.665,1.301-1.161v9.477h0.186c0.617-1.115,1.361-2.23,2.229-3.345
		c0.866-1.115,1.89-2.137,3.066-3.066c1.176-0.929,2.476-1.672,3.901-2.23c1.425-0.557,2.974-0.836,4.646-0.836
		c2.477,0,4.536,0.294,6.178,0.883c1.641,0.589,2.941,1.363,3.902,2.322c0.959,0.961,1.641,2.076,2.044,3.345
		c0.402,1.271,0.604,2.587,0.604,3.948v28.151h7.34v1.487h-22.484v-1.487h7.34V44.421c0-2.602-0.543-4.382-1.626-5.343
		c-1.085-0.959-2.369-1.439-3.856-1.439c-1.982,0-3.716,0.417-5.203,1.254c-1.485,0.836-2.771,1.843-3.855,3.02
		c-1.084,1.177-1.982,2.385-2.693,3.624c-0.713,1.24-1.287,2.262-1.719,3.066v26.2h7.061v1.487h-22.206v-1.487h7.34V39.683z"/>
	<path fill="#414142" d="M262.539,69.507h-0.187c-0.372,0.805-0.915,1.672-1.626,2.601c-0.713,0.93-1.579,1.782-2.602,2.555
		c-1.022,0.774-2.199,1.425-3.531,1.951c-1.332,0.525-2.803,0.79-4.412,0.79c-2.912,0-5.545-0.558-7.897-1.673
		c-2.354-1.116-4.367-2.632-6.04-4.552c-1.672-1.92-2.958-4.119-3.855-6.597c-0.898-2.477-1.347-5.079-1.347-7.805
		c0-2.291,0.433-4.646,1.301-7.061c0.866-2.416,2.12-4.629,3.763-6.643c1.641-2.012,3.592-3.67,5.854-4.97
		c2.26-1.302,4.785-1.952,7.572-1.952c1.672,0,3.205,0.294,4.599,0.883c1.394,0.589,2.632,1.333,3.716,2.229
		c1.084,0.899,1.998,1.905,2.741,3.02s1.331,2.23,1.766,3.345h0.187v-33.82h-7.434v-1.486h7.434c1.486,0,2.926-0.123,4.319-0.372
		c1.394-0.247,2.556-0.897,3.484-1.951v66.802h6.411v1.487h-14.215V69.507z M262.539,52.04c0-1.673-0.312-3.375-0.93-5.11
		c-0.62-1.733-1.503-3.283-2.648-4.646c-1.146-1.361-2.524-2.477-4.135-3.345c-1.611-0.867-3.377-1.3-5.295-1.3
		c-2.045,0-3.687,0.403-4.924,1.208c-1.24,0.806-2.217,1.998-2.928,3.577c-0.713,1.579-1.178,3.577-1.394,5.993
		c-0.218,2.416-0.325,5.203-0.325,8.362c0,3.47,0.107,6.411,0.325,8.826c0.216,2.416,0.681,4.399,1.394,5.946
		c0.711,1.549,1.734,2.664,3.066,3.345c1.331,0.682,3.143,1.022,5.436,1.022c1.547,0,3.08-0.309,4.599-0.929
		c1.517-0.619,2.849-1.502,3.995-2.648c1.145-1.146,2.059-2.523,2.74-4.135c0.682-1.61,1.023-3.375,1.023-5.296V52.04z"/>
	<path fill="#414142" d="M286.184,61.888c0,1.672,0.077,3.331,0.232,4.971c0.154,1.642,0.558,3.145,1.208,4.506
		c0.65,1.363,1.626,2.463,2.927,3.299c1.301,0.836,3.033,1.254,5.203,1.254c1.918,0,3.716-0.309,5.389-0.929
		c1.672-0.619,3.158-1.487,4.459-2.602c1.301-1.115,2.385-2.461,3.252-4.041c0.867-1.579,1.455-3.329,1.766-5.25h1.486
		c-0.743,4.274-2.587,7.728-5.527,10.359c-2.943,2.633-6.551,3.949-10.824,3.949c-2.727,0-5.22-0.497-7.479-1.487
		c-2.262-0.989-4.214-2.399-5.853-4.228c-1.643-1.825-2.913-3.994-3.811-6.503c-0.898-2.508-1.348-5.31-1.348-8.408
		c0-2.23,0.434-4.567,1.302-7.015c0.866-2.447,2.059-4.676,3.577-6.689c1.517-2.012,3.344-3.67,5.481-4.97
		c2.138-1.302,4.474-1.952,7.015-1.952c2.725,0,5.125,0.667,7.201,1.998c2.074,1.333,3.809,2.88,5.203,4.646
		c1.393,1.765,2.445,3.546,3.158,5.342c0.711,1.797,1.068,3.19,1.068,4.181c0,0.557-0.279,0.836-0.836,0.836h-24.25V61.888z
		 M302.35,49.066c0-1.486-0.108-2.91-0.324-4.273c-0.219-1.362-0.621-2.586-1.208-3.67c-0.59-1.083-1.38-1.935-2.37-2.555
		c-0.991-0.619-2.262-0.929-3.809-0.929c-1.611,0-2.959,0.311-4.042,0.929c-1.084,0.62-1.95,1.471-2.601,2.555
		c-0.651,1.084-1.115,2.308-1.395,3.67c-0.279,1.363-0.418,2.788-0.418,4.273v2.602h15.516c0.434,0,0.65-0.217,0.65-0.65V49.066z"/>
	<path fill="#414142" d="M316.768,62.817h1.208c0.187,1.177,0.511,2.524,0.976,4.041c0.465,1.519,1.176,2.943,2.137,4.274
		c0.96,1.332,2.23,2.461,3.811,3.391c1.578,0.929,3.576,1.394,5.992,1.394c2.602,0,4.753-0.773,6.457-2.323
		c1.703-1.547,2.555-3.653,2.555-6.317c0-1.858-0.311-3.282-0.928-4.274c-0.621-0.99-1.441-1.749-2.463-2.276
		c-1.021-0.526-2.153-0.867-3.392-1.022c-1.239-0.154-2.478-0.293-3.716-0.418c-1.487-0.186-2.943-0.418-4.367-0.697
		c-1.426-0.278-2.694-0.79-3.809-1.533c-1.115-0.743-2.014-1.812-2.695-3.206c-0.682-1.394-1.021-3.298-1.021-5.713
		c0-1.672,0.263-3.236,0.789-4.692c0.526-1.455,1.285-2.725,2.276-3.81c0.99-1.083,2.214-1.935,3.67-2.555
		c1.454-0.618,3.081-0.929,4.878-0.929c1.238,0,2.384,0.171,3.438,0.511c1.053,0.341,1.982,0.713,2.787,1.115
		c0.805,0.404,1.471,0.776,1.998,1.115c0.525,0.341,0.913,0.511,1.162,0.511c0.432,0,0.65-0.65,0.65-1.952v-0.743h1.3l0.372,11.057
		h-1.208c-0.186-1.301-0.497-2.57-0.929-3.809c-0.435-1.239-1.085-2.323-1.951-3.252c-0.869-0.929-1.938-1.672-3.206-2.23
		c-1.271-0.558-2.833-0.836-4.692-0.836c-2.354,0-4.366,0.636-6.039,1.904c-1.672,1.27-2.508,3.112-2.508,5.528
		c0,2.416,0.851,4.12,2.555,5.11c1.703,0.992,4.103,1.58,7.2,1.766l3.159,0.186c3.777,0.248,6.488,1.333,8.13,3.251
		c1.641,1.921,2.462,4.492,2.462,7.712c0,2.168-0.341,4.135-1.021,5.899c-0.683,1.765-1.596,3.269-2.741,4.506
		c-1.146,1.241-2.509,2.199-4.088,2.881c-1.579,0.681-3.269,1.022-5.063,1.022c-1.858,0-3.407-0.202-4.646-0.604
		c-1.24-0.403-2.276-0.866-3.112-1.394c-0.836-0.526-1.549-0.99-2.138-1.394c-0.589-0.402-1.101-0.604-1.532-0.604
		c-0.62,0-0.93,0.341-0.93,1.022c0,0.619-0.062,1.426-0.186,2.416h-1.394L316.768,62.817z"/>
	<path fill="#414142" d="M353.114,39.683h-7.433v-1.487h7.433c1.486,0,2.927-0.107,4.32-0.325c1.394-0.216,2.556-0.79,3.483-1.719
		v38.65h7.434v1.487h-22.67v-1.487h7.433V39.683z M352.278,19.428c0-1.301,0.464-2.416,1.394-3.345
		c0.929-0.929,2.043-1.394,3.344-1.394c1.302,0,2.416,0.464,3.346,1.394c0.93,0.929,1.394,2.043,1.394,3.345
		c0,1.301-0.464,2.415-1.394,3.344c-0.93,0.93-2.044,1.394-3.346,1.394c-1.301,0-2.415-0.464-3.344-1.394
		C352.742,21.843,352.278,20.729,352.278,19.428z"/>
	<path fill="#414142" d="M399.133,72.016c1.301,0,2.568,0.155,3.809,0.463c1.238,0.311,2.338,0.869,3.299,1.673
		c0.959,0.805,1.732,1.904,2.322,3.298c0.588,1.394,0.883,3.144,0.883,5.249c0,3.159-0.59,5.961-1.766,8.409
		c-1.178,2.446-2.756,4.489-4.738,6.132c-1.983,1.641-4.273,2.895-6.875,3.764c-2.602,0.865-5.297,1.3-8.083,1.3
		c-2.169,0-4.306-0.201-6.411-0.604c-2.105-0.403-4.027-1.084-5.76-2.045c-1.735-0.961-3.129-2.199-4.182-3.716
		c-1.055-1.519-1.579-3.392-1.579-5.621c0-1.301,0.293-2.508,0.882-3.623s1.348-2.138,2.276-3.066c0.93-0.93,1.935-1.751,3.02-2.463
		c1.083-0.712,2.121-1.286,3.113-1.719v-0.186c-2.603,0-4.507-0.789-5.714-2.369c-1.208-1.58-1.812-3.67-1.812-6.271
		c0-3.283,0.774-5.622,2.323-7.015c1.547-1.394,3.81-2.121,6.782-2.183v-0.186c-2.106-1.361-3.795-2.834-5.063-4.413
		c-1.271-1.579-1.905-3.638-1.905-6.178c0-2.044,0.418-3.949,1.254-5.714c0.837-1.765,1.952-3.298,3.346-4.599
		c1.394-1.3,3.034-2.323,4.924-3.065c1.889-0.744,3.856-1.115,5.9-1.115c2.167,0,4.195,0.325,6.086,0.976
		c1.888,0.65,3.483,1.658,4.785,3.02c0.865-0.929,1.872-1.827,3.02-2.695c1.145-0.867,2.522-1.3,4.134-1.3
		c1.361,0,2.492,0.356,3.392,1.068c0.896,0.713,1.348,1.75,1.348,3.112c0,1.115-0.373,1.937-1.116,2.462
		c-0.743,0.527-1.611,0.789-2.601,0.789c-0.869,0-1.58-0.309-2.138-0.929c-0.558-0.618-0.837-1.269-0.837-1.951
		c0-0.991,0.094-1.672,0.279-2.044c0.187-0.372,0.433-0.711,0.744-1.022c-0.93,0.062-1.891,0.434-2.881,1.115
		c-0.991,0.682-1.797,1.456-2.416,2.323c1.053,1.115,1.92,2.494,2.602,4.134c0.682,1.642,1.022,3.361,1.022,5.156
		c0,1.921-0.464,3.717-1.394,5.389s-2.137,3.112-3.623,4.32c-1.487,1.208-3.145,2.169-4.972,2.881
		c-1.827,0.712-3.64,1.068-5.435,1.068c-1.983,0-3.516-0.217-4.6-0.65s-1.874-0.774-2.369-1.023
		c-2.54,0.062-4.691,0.511-6.457,1.348c-1.766,0.836-2.648,2.339-2.648,4.506c0,1.178,0.402,2.106,1.209,2.788
		c0.804,0.682,1.765,1.022,2.88,1.022H399.133z M382.966,79.262c-2.787,0.618-4.894,1.766-6.317,3.438
		c-1.426,1.672-2.137,4.088-2.137,7.248c0,1.981,0.386,3.653,1.16,5.017c0.774,1.362,1.812,2.478,3.113,3.345
		c1.301,0.866,2.787,1.501,4.459,1.904c1.673,0.403,3.406,0.604,5.203,0.604c2.354,0,4.66-0.356,6.922-1.069
		c2.26-0.712,4.273-1.75,6.039-3.112s3.174-2.973,4.229-4.831c1.052-1.857,1.578-3.965,1.578-6.317c0-2.416-0.852-4.058-2.555-4.925
		c-1.704-0.867-3.763-1.301-6.179-1.301H382.966z M381.758,50.088c0,1.487,0.047,2.973,0.14,4.46s0.372,2.819,0.837,3.995
		c0.465,1.177,1.207,2.137,2.229,2.88c1.023,0.743,2.493,1.115,4.414,1.115c1.919,0,3.391-0.34,4.413-1.022
		c1.021-0.681,1.765-1.594,2.229-2.741c0.465-1.146,0.744-2.462,0.837-3.949s0.14-3.066,0.14-4.739c0-1.858-0.047-3.544-0.14-5.063
		c-0.093-1.517-0.372-2.834-0.837-3.949s-1.208-1.966-2.229-2.555c-1.022-0.588-2.494-0.882-4.413-0.882
		c-1.921,0-3.391,0.417-4.414,1.254c-1.021,0.836-1.764,1.875-2.229,3.112c-0.465,1.24-0.744,2.587-0.837,4.042
		C381.805,47.503,381.758,48.85,381.758,50.088z"/>
	<path fill="#414142" d="M421.589,39.683h-7.34v-1.487h7.34c1.114,0,2.074-0.015,2.88-0.046c0.805-0.031,1.501-0.108,2.091-0.233
		c0.587-0.123,1.099-0.325,1.533-0.604c0.433-0.278,0.866-0.665,1.301-1.161v9.477h0.186c0.618-1.115,1.361-2.23,2.229-3.345
		c0.866-1.115,1.889-2.137,3.066-3.066c1.176-0.929,2.477-1.672,3.902-2.23c1.424-0.557,2.973-0.836,4.645-0.836
		c2.478,0,4.537,0.294,6.18,0.883c1.64,0.589,2.941,1.363,3.901,2.322c0.96,0.961,1.641,2.076,2.044,3.345
		c0.402,1.271,0.604,2.587,0.604,3.948v28.151h7.341v1.487h-22.484v-1.487h7.339V44.421c0-2.602-0.541-4.382-1.625-5.343
		c-1.084-0.959-2.369-1.439-3.855-1.439c-1.983,0-3.717,0.417-5.203,1.254c-1.486,0.836-2.772,1.843-3.855,3.02
		c-1.084,1.177-1.983,2.385-2.694,3.624c-0.713,1.24-1.286,2.262-1.719,3.066v26.2h7.062v1.487h-22.206v-1.487h7.34V39.683z"/>
</g>
</svg>
