<?xml version="1.0" encoding="utf-8"?>
<!-- Generator: Adobe Illustrator 16.0.4, SVG Export Plug-In . SVG Version: 6.00 Build 0)  -->
<!DOCTYPE svg PUBLIC "-//W3C//DTD SVG 1.1//EN" "http://www.w3.org/Graphics/SVG/1.1/DTD/svg11.dtd">
<svg version="1.1" id="Layer_1" xmlns="http://www.w3.org/2000/svg" xmlns:xlink="http://www.w3.org/1999/xlink" x="0px" y="0px"
	 width="360px" height="340px" viewBox="0 0 360 340" enable-background="new 0 0 360 340" xml:space="preserve">
<g>
	<path fill="#414142" d="M77.006,82.744h-7.571l0.583-65.022L43.112,82.744h-5.357l-27.37-65.022l0.932,65.022h-7.57V6.106h9.2
		l27.837,65.022L67.339,6.106h9.667V82.744z"/>
	<path fill="#414142" d="M156.99,82.744h-8.503l-9.434-23.122h-36.805l-9.317,23.122h-8.735l33.543-76.637h6.522L156.99,82.744z
		 M136.724,53.761l-15.84-39.079l-16.072,39.079H136.724z"/>
	<path fill="#414142" d="M223.288,82.744h-6.755V69.935c-0.932,2.28-3.494,8.25-11.182,11.94c-3.843,1.846-8.618,2.823-13.743,2.823
		c-22.712,0-34.941-17.368-34.941-39.621c0-23.665,13.045-40.924,36.805-40.924c21.081,0,27.604,13.135,30.399,19.431l-7.338,3.69
		c-0.815-3.256-4.892-16.934-22.479-16.934c-16.889,0-29.118,12.7-29.118,34.302c0,19.54,9.317,33.651,27.138,33.651
		c19.684,0,24.809-16.934,24.459-28.983h-30.282v-6.622h37.037V82.744z"/>
	<path fill="#414142" d="M245.49,82.744h-7.803V6.106h7.803V82.744z"/>
	<path fill="#414142" d="M323.153,66.027c-7.92,16.283-20.267,18.671-30.516,18.671c-5.707,0-17.703-0.76-26.322-10.204
		c-6.173-6.73-9.551-17.585-9.551-29.526c0-16.283,6.29-40.815,35.174-40.815c22.13,0,28.187,12.483,31.797,19.865l-7.804,3.799
		c-1.514-6.296-5.357-10.964-8.735-13.352c-5.474-3.799-11.996-3.908-14.908-3.908c-8.852,0-15.024,2.388-20.266,9.01
		c-5.707,7.273-7.104,16.065-7.104,24.315c0,5.21,0.698,17.694,6.872,25.292c6.405,8.141,15.956,9.01,21.779,9.01
		c3.96,0,8.619-0.434,12.929-3.257c2.911-1.845,7.454-6.296,9.434-13.026L323.153,66.027z"/>
</g>
<g>
	<path fill="#757171" d="M28.19,122.049h-2.598v-5.225c-0.359,0.93-1.345,3.365-4.301,4.871c-1.479,0.753-3.315,1.151-5.287,1.151
		c-8.735,0-13.439-7.085-13.439-16.163c0-9.653,5.018-16.694,14.156-16.694c8.109,0,10.618,5.358,11.693,7.926l-2.822,1.506
		c-0.314-1.329-1.882-6.908-8.646-6.908c-6.496,0-11.2,5.181-11.2,13.993c0,7.97,3.584,13.727,10.438,13.727
		c7.571,0,9.542-6.908,9.408-11.823H13.944v-2.701H28.19V122.049z"/>
	<path fill="#757171" d="M81.424,122.049h-3.763l-9.99-13.86h-7.438v13.86h-3.001V90.742h8.87c5.511,0.044,6.899,0.044,8.87,0.708
		c5.197,1.815,5.556,6.73,5.556,8.281c0,3.276-1.434,5.092-2.375,6.022c-2.284,2.125-5.286,2.303-6.988,2.436L81.424,122.049z
		 M60.233,105.621h7.438c2.061,0,3.987-0.044,5.331-0.31c3.36-0.664,4.569-3.188,4.569-5.712c0-3.055-1.523-5.358-4.614-5.978
		c-0.896-0.177-1.299-0.177-5.286-0.222h-7.438V105.621z"/>
	<path fill="#757171" d="M134.416,122.049h-3.271l-3.629-9.432h-14.157l-3.584,9.432h-3.359l12.902-31.262h2.509L134.416,122.049z
		 M126.62,110.226l-6.093-15.941l-6.182,15.941H126.62z"/>
	<path fill="#757171" d="M163.435,122.049h-2.822V90.787h10.797c4.793,0,6.898,0,8.78,0.841c2.464,1.151,4.256,3.896,4.256,7.705
		c0,1.86-0.582,6.997-6.048,8.192c-1.523,0.354-2.24,0.354-7.93,0.443h-7.033V122.049z M163.435,105.355h6.765h1.434
		c3.674-0.044,4.346-0.044,5.241-0.222c3.271-0.531,4.66-2.967,4.66-5.845c0-1.949-0.673-3.897-2.285-5.004
		c-1.479-0.974-2.509-0.974-8.153-1.019h-7.661V105.355z"/>
	<path fill="#757171" d="M236.062,122.049h-3.002v-14.657h-19.442v14.657h-2.957V90.787h2.957v13.993h19.442V90.787h3.002V122.049z"
		/>
	<path fill="#757171" d="M268.208,122.049h-3.001V90.787h3.001V122.049z"/>
	<path fill="#757171" d="M321.544,115.229c-3.047,6.642-7.796,7.616-11.738,7.616c-2.195,0-6.81-0.31-10.125-4.162
		c-2.374-2.746-3.673-7.174-3.673-12.044c0-6.642,2.419-16.65,13.529-16.65c8.512,0,10.842,5.092,12.23,8.104l-3.002,1.55
		c-0.582-2.568-2.061-4.472-3.359-5.446c-2.106-1.55-4.614-1.594-5.734-1.594c-3.405,0-5.779,0.974-7.796,3.675
		c-2.195,2.967-2.732,6.554-2.732,9.919c0,2.125,0.269,7.218,2.644,10.317c2.464,3.321,6.138,3.675,8.377,3.675
		c1.523,0,3.315-0.177,4.973-1.329c1.12-0.752,2.867-2.568,3.629-5.313L321.544,115.229z"/>
</g>
<g>
	<path fill="#C7C8CA" d="M356.694,101.594v2.105l-20.922-0.162l20.922,7.483v1.49l-20.922,7.613l20.922-0.259v2.105h-24.659v-2.559
		l20.922-7.742l-20.922-7.386v-2.688H356.694z"/>
	<path fill="#C7C8CA" d="M356.694,78.457v2.365l-7.439,2.624v10.236l7.439,2.592v2.43l-24.659-9.33V87.56L356.694,78.457z
		 M347.369,84.094l-12.574,4.405l12.574,4.471V84.094z"/>
	<path fill="#C7C8CA" d="M356.694,57.183v2.656l-13.342,8.552l5.413,4.989h7.929v2.203h-24.659V73.38h13.762l-13.762-12.439v-2.98
		l9.745,8.941L356.694,57.183z"/>
	<path fill="#C7C8CA" d="M356.694,52.028v2.17h-24.659v-2.17H356.694z"/>
	<path fill="#C7C8CA" d="M356.694,29.39v2.138l-21.306,13.444h21.306v2.105h-24.659v-2.105l21.097-13.638l-21.097,0.194V29.39
		H356.694z"/>
	<path fill="#C7C8CA" d="M356.694,6.872v1.879h-4.121c0.733,0.259,2.654,0.972,3.842,3.11c0.594,1.069,0.908,2.397,0.908,3.823
		c0,6.317-5.589,9.718-12.749,9.718c-7.614,0-13.167-3.628-13.167-10.237c0-5.863,4.226-7.677,6.252-8.455l1.188,2.041
		c-1.048,0.227-5.449,1.361-5.449,6.252c0,4.697,4.087,8.099,11.037,8.099c6.287,0,10.828-2.591,10.828-7.548
		c0-5.475-5.449-6.9-9.326-6.803v8.423h-2.131V6.872H356.694z"/>
</g>
<g>
	<path fill="#414142" d="M2.824,128.78h15.528c5.936,0.064,14.907,0.192,21.119,5.302c5.038,4.215,6.971,10.539,6.971,16.862
		c0,3.896-0.621,6.771-1.242,8.687c-4.486,13.924-18.082,14.18-23.189,14.244H2.824V128.78z M15.109,138.297v26.508h3.727
		c6.487-0.128,15.459-0.447,15.459-13.414c0-3.13-0.345-6.26-2.553-9.07c-3.313-4.088-8.006-4.024-11.733-4.024H15.109z"/>
	<path fill="#414142" d="M53.088,128.78h36.025v8.751H65.234v8.176h22.292v8.559H65.234v10.73h26.019v8.878H53.088V128.78z"/>
	<path fill="#414142" d="M103.546,160.334c1.242,1.277,2.277,2.299,4.693,3.513c3.243,1.597,6.557,2.172,9.386,2.172
		c4.831,0,8.972-2.108,8.972-5.238c0-3.577-4.899-4.151-8.488-4.599c-2.691-0.319-5.384-0.639-8.006-1.15
		c-2.968-0.575-13.113-2.555-13.113-12.264c0-11.625,11.181-15.074,19.601-15.074c11.25,0,17.323,5.046,21.533,8.559l-8.973,5.94
		c-1.518-1.405-2.898-2.619-4.831-3.641c-1.725-0.895-4.831-1.98-7.937-1.98c-4.831,0-7.247,2.555-7.247,4.727
		c0,3.449,4.142,3.96,6.212,4.215c5.176,0.575,12.146,1.789,14.907,2.683c5.591,1.917,8.42,5.94,8.42,11.05
		c0,3.257-1.312,6.834-3.865,9.581c-4.417,4.727-11.456,6.067-18.289,6.067c-13.733,0-19.186-5.876-22.223-9.133L103.546,160.334z"
		/>
	<path fill="#414142" d="M157.584,128.78v45.095h-12.146V128.78H157.584z"/>
	<path fill="#414142" d="M200.891,169.659c-2.001,1.725-6.143,5.237-14.354,5.237c-13.597,0-21.947-10.219-21.947-23.505
		c0-14.499,10.146-24.144,24.018-24.144c12.905,0,19.186,7.665,21.464,10.411l-9.248,5.174c-1.726-2.427-4.556-6.387-11.319-6.387
		c-9.248,0-12.768,7.09-12.768,14.627c0,5.11,1.519,9.262,3.865,11.497c1.863,1.853,5.176,3.258,8.902,3.258
		c2.209,0,4.693-0.511,6.695-1.725c3.174-1.917,3.589-4.344,3.934-6.707h-10.904v-8.559h21.188v25.038h-9.524V169.659z"/>
	<path fill="#414142" d="M218.58,128.78h11.939l10.56,16.607c3.865,6.323,5.038,8.367,7.315,12.327l-0.552-28.935h11.663v45.095
		h-11.939l-9.109-14.244c-4.417-6.707-5.246-8.112-8.559-14.116l0.346,28.36H218.58V128.78z"/>
	<path fill="#414142" d="M268.728,128.78h36.025v8.751h-23.879v8.176h22.292v8.559h-22.292v10.73h26.019v8.878h-38.165V128.78z"/>
	<path fill="#414142" d="M313.49,128.78h21.947c5.106,0.064,11.456,0.128,15.942,4.599c2.277,2.363,3.865,5.94,3.865,10.028
		c0,9.07-6.695,11.306-10.008,12.456l11.25,18.012h-13.458l-9.662-16.096h-7.661v16.096H313.49V128.78z M325.706,137.212v12.2
		h10.076c1.726-0.064,7.315-0.192,7.315-6.196c0-5.749-4.485-5.94-7.039-6.004H325.706z"/>
</g>
<g>
	<path fill="#414142" d="M43.52,179.341h11.797c4.509,0.047,11.324,0.143,16.043,3.946c3.827,3.138,5.296,7.845,5.296,12.552
		c0,2.9-0.473,5.04-0.944,6.467c-3.407,10.365-13.736,10.555-17.616,10.603H43.52V179.341z M52.852,186.425v19.731h2.832
		c4.928-0.095,11.744-0.332,11.744-9.984c0-2.33-0.263-4.659-1.94-6.752c-2.517-3.043-6.082-2.995-8.913-2.995H52.852z"/>
	<path fill="#414142" d="M81.934,179.341h27.368v6.514H91.161v6.086h16.935v6.371H91.161v7.987h19.766v6.609H81.934V179.341z"/>
	<path fill="#414142" d="M137.486,179.341h9.856l-12.846,33.567h-9.437l-12.688-33.567h9.857l7.654,23.868L137.486,179.341z"/>
	<path fill="#414142" d="M150.723,179.341h27.368v6.514H159.95v6.086h16.935v6.371H159.95v7.987h19.766v6.609h-28.993V179.341z"/>
	<path fill="#414142" d="M184.968,179.293h9.228v26.531h14.47v7.084h-23.697V179.293z"/>
	<path fill="#414142" d="M229.152,213.859c-11.744,0-18.402-8.178-18.402-17.878c0-9.081,6.344-17.687,18.245-17.687
		c2.202,0,4.509,0.285,6.764,0.998c11.324,3.566,12.059,14.739,12.059,17.021c0,5.801-2.937,11.031-7.025,14.026
		C237.174,213.051,232.979,213.859,229.152,213.859z M235.549,187.756c-1.573-1.521-3.984-2.472-6.501-2.472
		c-5.61,0-9.176,4.469-9.176,10.555c0,7.988,4.929,10.936,9.28,10.936c4.404,0,9.123-2.853,9.385-9.89
		C238.694,193.366,237.646,189.801,235.549,187.756z"/>
	<path fill="#414142" d="M253.306,179.341h14.89c6.082,0,11.482,0,14.733,4.231c1.415,1.901,2.097,4.611,2.097,6.895
		c0,1.854-0.419,3.66-1.259,5.229c-3.197,5.991-10.014,6.134-15.047,6.229h-6.134v10.983h-9.28V179.341z M262.586,185.521v10.175
		h5.558c3.46,0,7.654-0.095,7.654-5.277c0-4.897-4.666-4.897-7.34-4.897H262.586z"/>
	<path fill="#414142" d="M289.076,179.341h27.368v6.514h-18.141v6.086h16.935v6.371h-16.935v7.987h19.766v6.609h-28.993V179.341z"/>
	<path fill="#414142" d="M323.301,179.341h16.673c3.88,0.047,8.703,0.095,12.111,3.423c1.729,1.76,2.936,4.422,2.936,7.465
		c0,6.752-5.086,8.416-7.603,9.271l8.546,13.408H345.74l-7.34-11.981h-5.819v11.981h-9.28V179.341z M332.581,185.616v9.082h7.654
		c1.311-0.048,5.558-0.143,5.558-4.612c0-4.279-3.408-4.422-5.348-4.47H332.581z"/>
</g>
<g>
	<path fill="#C7C8CA" d="M147.608,330.887c0,1.691-3.842,2.537-11.526,2.537s-16.337-2.102-25.953-6.306
		c-6.022,2.358-11.169,4.025-15.437,4.999c-4.27,0.974-9.595,1.461-15.976,1.461c-6.383,0-12.336-1.281-17.863-3.846
		c-5.528-2.562-9.754-5.677-12.673-9.343c-2.922-3.665-4.382-6.946-4.382-9.844c0-2.896,0.067-5.279,0.202-7.151
		c0.135-1.871,0.539-3.793,1.213-5.768c0.675-1.973,1.168-3.562,1.483-4.768c0.313-1.204,1.123-2.832,2.427-4.884
		c1.302-2.05,2.157-3.46,2.562-4.229c0.404-0.769,1.618-2.318,3.64-4.652c2.022-2.332,3.257-3.768,3.708-4.306
		c0.448-0.539,1.976-2.242,4.584-5.114c2.605-2.87,4.179-4.614,4.719-5.229l-1.888-22.07v-13.073c0-3.178,0.965-5.625,2.898-7.344
		c1.932-1.717,3.931-2.576,5.999-2.576c4.224,0,8.764,0.796,13.617,2.384c4.854,1.59,7.28,3.487,7.28,5.691l-0.81,9.382
		c0,0.872,0.089,1.513,0.271,1.922c-1.349,2.153-2.922,4.718-4.719,7.69c-4.045,6.818-7.371,11.254-9.977,13.304
		c-4.136,3.281-6.202,5.69-6.202,7.229c0,3.128,1.773,8.805,5.325,17.033c3.55,8.229,8.043,16.265,13.482,24.108
		c5.437,7.844,10.267,12.125,14.492,12.842c7.011-8.048,10.517-18.225,10.517-30.529c0-1.794-0.81-2.614-2.427-2.461
		c-1.799,0.154-3.191-0.179-4.18-0.999l0.27-0.308l-0.539-1l0.809-0.769c3.146,0,8.427-0.218,15.842-0.654
		c7.414-0.435,12.065-0.857,13.953-1.269c3.146,0.257,4.719,1.052,4.719,2.384c0,0.77-1.551,1.385-4.651,1.846
		s-6.134,0.692-9.101,0.692l-6.605-0.154h-1.753c0,8.102-0.788,14.791-2.359,20.071c-1.573,5.28-4.741,10.562-9.505,15.841
		c6.381,4.205,13.482,6.307,21.302,6.307l10.246-0.462L147.608,330.887z M54.854,287.86c-3.326,6.229-4.988,11.65-4.988,16.265
		s0.584,8.267,1.753,10.958c1.167,2.691,2.92,5.243,5.258,7.652c5.123,5.229,13.122,7.844,23.998,7.844
		c3.684,0,8.493-0.628,14.425-1.885c5.933-1.255,9.033-2.729,9.303-4.422c-0.809-0.769-2.652-1.973-5.527-3.614
		c-5.844-3.383-11.078-8.561-15.706-15.533c-4.631-6.972-7.597-12.329-8.898-16.072c-1.304-3.742-2.271-7.19-2.898-10.343
		c-0.63-3.153-1.395-5.549-2.292-7.19C62.987,276.186,58.178,281.632,54.854,287.86z M73.594,249.295
		c-0.36,0.615-0.539,1.423-0.539,2.423s0.135,2.243,0.404,3.729c0.27,1.487,0.404,2.641,0.404,3.461
		c3.145-1.641,6.65-5.691,10.516-12.15c3.863-6.46,5.797-11.124,5.797-13.996c0-6.306-3.416-9.459-10.246-9.459
		c-1.26,0-2.764,0.757-4.517,2.269c-1.752,1.513-2.629,2.653-2.629,3.422l0.271,19.533L73.594,249.295z M134.396,302.049
		c0.179,0,0.27,0.052,0.27,0.153L134.396,302.049z"/>
</g>
<g>
	<path fill="#757171" d="M32.649,333.305v1.916H4.598v-13.62h2.344v11.704h9.497V322.81h2.304v10.495H32.649z"/>
	<path fill="#757171" d="M32.649,302.943v2.476l-12.437,6.574v4.894h12.437v1.976H4.558v-5.837c0.04-3.626,0.04-4.54,0.636-5.837
		c1.629-3.42,6.039-3.656,7.431-3.656c2.939,0,4.569,0.943,5.403,1.562c1.907,1.504,2.066,3.479,2.186,4.599L32.649,302.943z
		 M17.908,316.887v-4.894c0-1.356-0.04-2.624-0.278-3.508c-0.596-2.211-2.86-3.007-5.126-3.007c-2.741,0-4.808,1.002-5.363,3.036
		c-0.159,0.59-0.159,0.854-0.199,3.479v4.894H17.908z"/>
	<path fill="#757171" d="M29.709,285.75c3.219,2.033,3.655,4.539,3.655,6.249c0,2.565-1.072,4.688-3.814,6.397
		c-2.305,1.474-5.999,2.624-10.966,2.624c-7.748,0-14.702-2.83-14.702-9.021c0-6.898,8.186-8.933,14.543-8.902
		C22.716,283.126,27.047,284.069,29.709,285.75z M6.187,291.999c0,5.307,7.072,6.928,12.437,6.928
		c5.205,0,12.357-1.532,12.357-6.839c0-6.427-10.251-6.869-12.516-6.869C13.379,285.189,6.187,286.723,6.187,291.999z"/>
	<path fill="#757171" d="M32.649,263.333v1.946L8.412,277.514h24.237v1.916H4.598v-1.916l23.999-12.411l-23.999,0.177v-1.946H32.649
		z"/>
	<path fill="#757171" d="M32.649,252.119v1.976H6.941v6.544H4.598v-15.094h2.344v6.574H32.649z"/>
	<path fill="#757171" d="M21.008,238.426v8.225h-2.583v-8.225H21.008z"/>
	<path fill="#757171" d="M32.649,220.675v14.327H4.598v-13.591h2.463v11.615h9.974v-10.524h2.463v10.524h10.688v-12.352H32.649z"/>
	<path fill="#757171" d="M32.649,201.568v1.946L8.412,215.749h24.237v1.916H4.598v-1.916l23.999-12.411l-23.999,0.177v-1.946H32.649
		z"/>
	<path fill="#757171" d="M32.649,196.979H4.598v-5.542c0.039-2.212,0.039-4.128,0.834-5.631c1.59-2.978,6.556-5.218,13.112-5.218
		c5.245,0,9.655,1.415,12.079,3.714c1.986,1.887,2.026,3.773,2.026,7.282V196.979z M30.266,194.974v-3.125
		c0-1.71,0.039-4.098-0.835-5.483c-1.231-2.004-5.165-3.803-10.768-3.803c-4.808,0-9.417,1.415-10.927,3.95
		c-0.676,1.15-0.676,2.271-0.676,4.835v3.626H30.266z"/>
</g>
<g>
	<path fill="#757171" d="M115.759,279.217h-5.369v-57.817h20.542c9.12,0,13.126,0,16.706,1.557
		c4.688,2.129,8.097,7.206,8.097,14.249c0,3.439-1.107,12.939-11.507,15.15c-2.897,0.655-4.262,0.655-15.086,0.819h-13.383V279.217z
		 M115.759,248.343h12.871h2.728c6.989-0.082,8.268-0.082,9.973-0.409c6.222-0.983,8.864-5.487,8.864-10.811
		c0-3.604-1.278-7.206-4.347-9.254c-2.813-1.802-4.773-1.802-15.513-1.884h-14.576V248.343z"/>
	<path fill="#757171" d="M176.493,279.217h-5.711v-57.817h5.711V279.217z"/>
	<path fill="#757171" d="M245.023,279.217h-7.075l-19.434-27.762l-20.2,27.762h-6.563l22.843-31.12l-19.689-26.697h7.245
		l16.365,23.34l16.706-23.34h6.904l-19.774,26.697L245.023,279.217z"/>
	<path fill="#757171" d="M301.853,279.217h-41.424v-57.817h39.293v5.078H266.14v20.555h30.429v5.078H266.14v22.029h35.713V279.217z"
		/>
	<path fill="#757171" d="M356.909,279.217h-39.038v-57.899h5.796v52.822h33.242V279.217z"/>
</g>
<g>
	<path fill="#757171" d="M157.429,333.071h-2.824v-44.847h10.805c4.797,0,6.903,0,8.786,1.207c2.466,1.651,4.26,5.59,4.26,11.053
		c0,2.668-0.583,10.036-6.053,11.752c-1.524,0.508-2.241,0.508-7.935,0.635h-7.039V333.071z M157.429,309.123h6.77h1.435
		c3.677-0.063,4.349-0.063,5.245-0.317c3.273-0.762,4.663-4.256,4.663-8.385c0-2.795-0.673-5.59-2.287-7.178
		c-1.479-1.397-2.51-1.397-8.159-1.461h-7.666V309.123z"/>
	<path fill="#757171" d="M206.482,333.071h-3.766l-9.997-19.883h-7.442v19.883h-3.004v-44.91h8.877
		c5.514,0.063,6.903,0.063,8.876,1.017c5.2,2.604,5.56,9.655,5.56,11.878c0,4.701-1.435,7.306-2.376,8.64
		c-2.287,3.049-5.29,3.303-6.994,3.493L206.482,333.071z M185.277,309.505h7.442c2.062,0,3.989-0.063,5.334-0.445
		c3.362-0.952,4.573-4.573,4.573-8.194c0-4.383-1.524-7.686-4.618-8.575c-0.896-0.254-1.3-0.254-5.289-0.317h-7.442V309.505z"/>
	<path fill="#757171" d="M213.677,333.071h-3.004v-44.847h3.004V333.071z"/>
	<path fill="#757171" d="M244.83,333.071h-2.959l-18.604-38.749v38.749h-2.914v-44.847h2.914l18.874,38.367l-0.27-38.367h2.959
		V333.071z"/>
	<path fill="#757171" d="M275.803,323.289c-3.049,9.528-7.801,10.926-11.746,10.926c-2.196,0-6.813-0.444-10.131-5.972
		c-2.376-3.938-3.677-10.29-3.677-17.277c0-9.528,2.421-23.885,13.539-23.885c8.518,0,10.849,7.305,12.238,11.625l-3.003,2.223
		c-0.583-3.684-2.062-6.415-3.362-7.812c-2.107-2.224-4.618-2.287-5.738-2.287c-3.407,0-5.783,1.397-7.801,5.272
		c-2.196,4.256-2.734,9.401-2.734,14.229c0,3.049,0.269,10.354,2.645,14.801c2.466,4.765,6.142,5.272,8.384,5.272
		c1.524,0,3.317-0.254,4.976-1.905c1.121-1.08,2.869-3.685,3.632-7.623L275.803,323.289z"/>
	<path fill="#757171" d="M302.274,333.071h-21.788v-44.847h20.667v3.938H283.49v15.944h16.005v3.938H283.49v17.088h18.784V333.071z"
		/>
	<path fill="#757171" d="M325.177,299.087c-0.269-1.144-0.627-2.668-1.345-4.002c-1.569-3.112-4.124-4.51-6.859-4.51
		c-3.407,0-7.441,2.032-7.441,8.004c0,5.463,3.542,7.051,5.335,7.812c0.896,0.382,5.424,2.033,6.41,2.541
		c1.704,0.763,7.308,3.367,7.308,11.879c0,6.289-3.721,13.403-11.835,13.403c-3.362,0-5.783-1.207-7.442-2.731
		c-2.421-2.287-3.766-5.59-4.304-9.719l3.004-2.224c0.045,1.778,0.18,3.621,0.763,5.209c1.435,4.192,4.707,5.78,7.979,5.78
		c6.097,0,8.786-4.764,8.786-9.528c0-3.239-1.075-5.082-1.927-6.034c-1.436-1.716-3.273-2.351-7.442-3.875
		c-4.483-1.651-9.549-4.002-9.549-12.323c0-8.83,5.515-11.688,10.445-11.688c8.114,0,10.177,7.368,10.894,9.846L325.177,299.087z"/>
	<path fill="#757171" d="M352.239,299.087c-0.269-1.144-0.627-2.668-1.345-4.002c-1.569-3.112-4.124-4.51-6.859-4.51
		c-3.407,0-7.441,2.032-7.441,8.004c0,5.463,3.542,7.051,5.335,7.812c0.896,0.382,5.424,2.033,6.41,2.541
		c1.704,0.763,7.308,3.367,7.308,11.879c0,6.289-3.721,13.403-11.835,13.403c-3.362,0-5.783-1.207-7.442-2.731
		c-2.421-2.287-3.766-5.59-4.304-9.719l3.004-2.224c0.045,1.778,0.18,3.621,0.763,5.209c1.435,4.192,4.707,5.78,7.979,5.78
		c6.097,0,8.786-4.764,8.786-9.528c0-3.239-1.075-5.082-1.927-6.034c-1.436-1.716-3.273-2.351-7.442-3.875
		c-4.483-1.651-9.549-4.002-9.549-12.323c0-8.83,5.515-11.688,10.445-11.688c8.114,0,10.177,7.368,10.894,9.846L352.239,299.087z"/>
</g>
</svg>
