<?xml version="1.0" encoding="utf-8"?>
<!-- Generator: Adobe Illustrator 16.0.4, SVG Export Plug-In . SVG Version: 6.00 Build 0)  -->
<!DOCTYPE svg PUBLIC "-//W3C//DTD SVG 1.1//EN" "http://www.w3.org/Graphics/SVG/1.1/DTD/svg11.dtd">
<svg version="1.1" id="Layer_1" xmlns="http://www.w3.org/2000/svg" xmlns:xlink="http://www.w3.org/1999/xlink" x="0px" y="0px"
	 width="300px" height="54px" viewBox="0 0 300 54" enable-background="new 0 0 300 54" xml:space="preserve">
<g>
	<path fill="#460054" d="M10.75,24.902H5.24v-1.068c1.646,0.045,3.05-0.11,4.211-0.467c1.161-0.355,2.132-0.924,2.914-1.703
		c0.781-0.777,1.403-1.756,1.868-2.937c0.464-1.178,0.823-2.591,1.077-4.238h0.76v9.344h8.74v1.068h-8.74v22.426
		c0,1.379,0.263,2.324,0.792,2.836c0.527,0.513,1.298,0.769,2.312,0.769c0.802,0,1.488-0.167,2.059-0.501
		c0.57-0.334,1.055-0.723,1.457-1.168c0.401-0.443,0.717-0.911,0.95-1.4c0.232-0.49,0.39-0.869,0.475-1.136l0.95,0.2
		c-0.127,0.4-0.338,0.891-0.633,1.469c-0.296,0.578-0.719,1.135-1.267,1.668c-0.549,0.534-1.235,0.991-2.059,1.368
		C20.283,51.811,19.279,52,18.098,52c-2.238,0-4.021-0.434-5.352-1.303c-1.33-0.867-1.995-2.412-1.995-4.64L10.75,24.902
		L10.75,24.902z"/>
	<path fill="#460054" d="M31.479,24.902h-5.32v-1.068h5.32c1.014,0,1.995-0.077,2.945-0.233c0.95-0.155,1.742-0.567,2.375-1.235
		v7.877h0.126c0.168-0.758,0.453-1.592,0.855-2.504c0.401-0.91,0.928-1.769,1.583-2.568c0.654-0.801,1.446-1.469,2.375-2.002
		c0.928-0.534,2.047-0.801,3.356-0.801c1.182,0,2.174,0.367,2.977,1.101c0.802,0.733,1.204,1.68,1.204,2.837
		c0,0.891-0.244,1.635-0.729,2.236c-0.486,0.601-1.214,0.899-2.185,0.899c-1.056,0-1.784-0.268-2.185-0.801
		c-0.401-0.534-0.602-1.245-0.602-2.136c0-0.756,0.147-1.368,0.443-1.835c0.295-0.468,0.612-0.812,0.95-1.035
		c-0.169-0.134-0.465-0.2-0.887-0.2c-0.633,0-1.373,0.268-2.217,0.801c-0.845,0.534-1.646,1.346-2.407,2.437
		c-0.76,1.091-1.393,2.446-1.9,4.069c-0.506,1.625-0.76,3.527-0.76,5.707V50.13h5.763v1.067h-16.4V50.13h5.32V24.902L31.479,24.902z
		"/>
	<path fill="#460054" d="M55.722,24.902h-5.066v-1.068h5.066c1.014,0,1.995-0.077,2.945-0.233c0.95-0.155,1.742-0.567,2.375-1.235
		V50.13h5.066v1.067H50.655V50.13h5.066L55.722,24.902L55.722,24.902z M55.152,10.352c0-0.935,0.317-1.735,0.95-2.403
		c0.633-0.668,1.393-1.001,2.28-1.001c0.887,0,1.646,0.334,2.28,1.001c0.634,0.667,0.95,1.468,0.95,2.403
		c0,0.934-0.316,1.735-0.95,2.403c-0.633,0.667-1.393,1.001-2.28,1.001c-0.887,0-1.646-0.334-2.28-1.001
		C55.469,12.087,55.152,11.286,55.152,10.352z"/>
	<path fill="#460054" d="M68.56,41.521h0.823c0.126,0.847,0.348,1.813,0.665,2.903c0.316,1.091,0.801,2.113,1.457,3.07
		c0.654,0.957,1.52,1.769,2.597,2.436c1.077,0.668,2.438,1.002,4.085,1.002c1.773,0,3.24-0.557,4.401-1.669
		c1.161-1.11,1.742-2.625,1.742-4.538c0-1.335-0.211-2.357-0.633-3.07c-0.422-0.711-0.981-1.257-1.678-1.636
		c-0.697-0.377-1.468-0.622-2.312-0.733c-0.845-0.109-1.689-0.211-2.533-0.301c-1.014-0.134-2.006-0.301-2.977-0.5
		c-0.972-0.201-1.836-0.568-2.597-1.102c-0.76-0.534-1.373-1.303-1.836-2.303c-0.465-1.002-0.697-2.371-0.697-4.105
		c0-1.201,0.179-2.324,0.539-3.37c0.358-1.045,0.875-1.958,1.551-2.735c0.675-0.778,1.509-1.391,2.502-1.836
		c0.992-0.443,2.1-0.666,3.325-0.666c0.844,0,1.625,0.123,2.343,0.367c0.718,0.244,1.351,0.512,1.9,0.801
		c0.548,0.289,1.002,0.557,1.361,0.801c0.358,0.244,0.623,0.367,0.792,0.367c0.295,0,0.443-0.467,0.443-1.401v-0.534h0.886
		l0.253,7.941h-0.823c-0.126-0.934-0.338-1.846-0.633-2.735c-0.296-0.89-0.739-1.668-1.33-2.336
		c-0.592-0.667-1.32-1.202-2.185-1.603c-0.866-0.399-1.932-0.601-3.198-0.601c-1.605,0-2.977,0.457-4.117,1.368
		c-1.14,0.913-1.71,2.236-1.71,3.971c0,1.735,0.58,2.961,1.742,3.672c1.161,0.711,2.797,1.135,4.908,1.27l2.153,0.133
		c2.575,0.18,4.423,0.958,5.542,2.336c1.118,1.38,1.678,3.229,1.678,5.54c0,1.56-0.232,2.972-0.697,4.238s-1.087,2.348-1.868,3.235
		c-0.782,0.893-1.71,1.58-2.787,2.068C80.56,51.755,79.409,52,78.185,52c-1.267,0-2.323-0.146-3.167-0.436
		c-0.845-0.289-1.552-0.621-2.122-1.001c-0.57-0.378-1.056-0.712-1.457-1.001c-0.402-0.287-0.75-0.435-1.045-0.435
		c-0.422,0-0.633,0.243-0.633,0.733c0,0.444-0.042,1.023-0.126,1.734h-0.95L68.56,41.521z"/>
	<path fill="#460054" d="M92.98,4.879h-5.003V3.811h5.003c1.013,0,1.995-0.089,2.945-0.267c0.95-0.177,1.742-0.646,2.375-1.401
		v27.031h0.127c0.421-0.801,0.928-1.602,1.52-2.403c0.591-0.801,1.288-1.534,2.09-2.202c0.801-0.666,1.688-1.201,2.66-1.602
		c0.971-0.4,2.027-0.602,3.167-0.602c1.688,0,3.092,0.211,4.211,0.635c1.118,0.424,2.005,0.979,2.66,1.668
		c0.654,0.691,1.118,1.492,1.393,2.404c0.274,0.912,0.412,1.857,0.412,2.836V50.13h5.003v1.067h-15.327V50.13h5.003V28.305
		c0-1.869-0.37-3.146-1.108-3.837c-0.739-0.688-1.615-1.035-2.628-1.035c-1.352,0-2.533,0.3-3.546,0.901
		c-1.013,0.601-1.89,1.324-2.628,2.169c-0.739,0.846-1.352,1.713-1.836,2.603c-0.486,0.891-0.877,1.625-1.172,2.202V50.13h4.813
		v1.067H87.977V50.13h5.003V4.879z"/>
	<path fill="#460054" d="M145.571,47.594c0,0.624,0.105,1.27,0.317,1.936c0.21,0.668,0.738,1.002,1.583,1.002
		c0.718,0,1.33-0.268,1.837-0.802c0.506-0.532,0.991-1.155,1.458-1.868l0.695,0.534c-0.591,1.112-1.33,1.991-2.216,2.636
		c-0.886,0.646-2.006,0.969-3.356,0.969c-1.479,0-2.724-0.399-3.737-1.2c-1.013-0.802-1.626-1.779-1.836-2.938h-0.127
		c-1.098,1.514-2.375,2.582-3.832,3.203C134.9,51.688,133.116,52,131.005,52c-2.492,0-4.434-0.622-5.827-1.868
		c-1.394-1.245-2.09-3.003-2.09-5.271c0-1.869,0.527-3.404,1.583-4.605c1.055-1.201,2.375-2.157,3.958-2.869
		s3.303-1.202,5.162-1.469c1.857-0.268,3.61-0.4,5.256-0.4h1.204v-8.209c0-0.801-0.158-1.445-0.475-1.936
		c-0.317-0.489-0.729-0.879-1.235-1.168c-0.507-0.289-1.067-0.489-1.678-0.602c-0.613-0.111-1.214-0.167-1.805-0.167
		c-0.465,0-1.045,0.056-1.742,0.167c-0.697,0.111-1.373,0.278-2.027,0.5c-0.655,0.223-1.214,0.545-1.678,0.969
		c-0.465,0.422-0.696,0.924-0.696,1.5c0,0.4,0.104,0.69,0.316,0.868c0.211,0.179,0.453,0.367,0.729,0.567
		c0.274,0.199,0.517,0.467,0.728,0.801s0.317,0.879,0.317,1.637c0,0.801-0.275,1.467-0.823,2.002
		c-0.549,0.533-1.246,0.801-2.09,0.801c-0.887,0-1.573-0.334-2.058-1.002c-0.486-0.666-0.729-1.577-0.729-2.734
		c0-0.846,0.211-1.689,0.633-2.537c0.422-0.844,1.045-1.611,1.869-2.302c0.823-0.688,1.836-1.245,3.04-1.669
		c1.203-0.422,2.606-0.635,4.211-0.635c1.182,0,2.396,0.168,3.642,0.5c1.245,0.334,2.375,0.824,3.388,1.469
		c1.014,0.646,1.847,1.447,2.502,2.402c0.654,0.959,0.981,2.082,0.981,3.373V47.594z M139.175,36.58
		c-1.14,0-2.323,0.045-3.547,0.135c-1.225,0.09-2.343,0.367-3.356,0.834c-1.013,0.468-1.848,1.191-2.501,2.17
		c-0.655,0.979-0.982,2.357-0.982,4.138c0,0.935,0.053,1.802,0.158,2.604c0.105,0.801,0.317,1.49,0.633,2.068
		c0.317,0.577,0.781,1.033,1.394,1.366c0.611,0.334,1.425,0.501,2.438,0.501c1.181,0,2.206-0.199,3.071-0.601
		c0.865-0.4,1.573-0.878,2.122-1.437c0.548-0.557,0.96-1.111,1.235-1.668c0.274-0.557,0.412-1.013,0.412-1.369V36.58H139.175z"/>
	<path fill="#D3C9DB" d="M158.495,36.747c0-0.688,0.122-1.338,0.367-1.95c0.244-0.61,0.577-1.145,0.998-1.605
		c0.421-0.457,0.912-0.821,1.473-1.088s1.156-0.4,1.787-0.4s1.227,0.134,1.787,0.4s1.052,0.631,1.473,1.088
		c0.422,0.458,0.754,0.994,0.998,1.605c0.245,0.61,0.368,1.262,0.368,1.95c0,0.687-0.123,1.336-0.368,1.948
		c-0.244,0.611-0.577,1.145-0.998,1.604c-0.421,0.458-0.912,0.821-1.473,1.088c-0.561,0.268-1.156,0.401-1.787,0.401
		s-1.227-0.134-1.787-0.401c-0.561-0.267-1.051-0.63-1.473-1.088c-0.421-0.458-0.754-0.992-0.998-1.604
		C158.617,38.083,158.495,37.434,158.495,36.747z"/>
	<path fill="#460054" d="M201.052,47.594c0,0.624,0.104,1.27,0.316,1.936c0.211,0.668,0.737,1.002,1.583,1.002
		c0.718,0,1.33-0.268,1.837-0.802c0.507-0.532,0.991-1.155,1.456-1.868l0.697,0.534c-0.592,1.112-1.33,1.991-2.217,2.636
		c-0.889,0.646-2.008,0.969-3.356,0.969c-1.479,0-2.724-0.399-3.737-1.2c-1.013-0.802-1.625-1.779-1.836-2.938h-0.127
		c-1.1,1.514-2.375,2.582-3.832,3.203c-1.456,0.623-3.24,0.936-5.352,0.936c-2.491,0-4.435-0.622-5.826-1.868
		c-1.395-1.245-2.09-3.003-2.09-5.271c0-1.869,0.527-3.404,1.582-4.605c1.056-1.201,2.375-2.157,3.959-2.869
		s3.304-1.202,5.162-1.469c1.855-0.268,3.608-0.4,5.256-0.4h1.203v-8.209c0-0.801-0.158-1.445-0.476-1.936
		c-0.315-0.489-0.729-0.879-1.233-1.168c-0.508-0.289-1.066-0.489-1.681-0.602c-0.61-0.111-1.214-0.167-1.805-0.167
		c-0.466,0-1.045,0.056-1.741,0.167c-0.695,0.111-1.373,0.278-2.025,0.5c-0.656,0.223-1.215,0.545-1.68,0.969
		c-0.466,0.422-0.695,0.924-0.695,1.5c0,0.4,0.104,0.69,0.315,0.868c0.21,0.179,0.453,0.367,0.729,0.567
		c0.273,0.199,0.517,0.467,0.729,0.801c0.211,0.334,0.316,0.879,0.316,1.637c0,0.801-0.274,1.467-0.823,2.002
		c-0.55,0.533-1.245,0.801-2.091,0.801c-0.887,0-1.572-0.334-2.059-1.002c-0.486-0.666-0.729-1.577-0.729-2.734
		c0-0.846,0.21-1.689,0.633-2.537c0.422-0.844,1.045-1.611,1.868-2.302c0.821-0.688,1.837-1.245,3.04-1.669
		c1.201-0.422,2.605-0.635,4.212-0.635c1.182,0,2.396,0.168,3.644,0.5c1.243,0.334,2.375,0.824,3.389,1.469
		c1.013,0.646,1.846,1.447,2.5,2.402c0.654,0.959,0.981,2.082,0.981,3.373L201.052,47.594L201.052,47.594z M194.654,36.58
		c-1.141,0-2.322,0.045-3.547,0.135c-1.227,0.09-2.344,0.367-3.356,0.834c-1.013,0.468-1.847,1.191-2.501,2.17
		s-0.98,2.357-0.98,4.138c0,0.935,0.051,1.802,0.157,2.604c0.104,0.801,0.316,1.49,0.634,2.068c0.315,0.577,0.78,1.033,1.395,1.366
		c0.609,0.334,1.425,0.501,2.438,0.501c1.183,0,2.205-0.199,3.07-0.601s1.572-0.878,2.122-1.437c0.548-0.557,0.96-1.111,1.233-1.668
		s0.412-1.013,0.412-1.369V36.58H194.654z"/>
	<path fill="#460054" d="M213.116,4.879h-5.067V3.811h5.067c1.013,0,1.995-0.089,2.944-0.267c0.948-0.177,1.74-0.646,2.375-1.401
		V50.13h5.065v1.067h-15.454V50.13h5.066L213.116,4.879L213.116,4.879z"/>
	<path fill="#460054" d="M230.121,4.879h-5.066V3.811h5.066c1.013,0,1.995-0.089,2.943-0.267c0.951-0.177,1.742-0.646,2.375-1.401
		V50.13h5.066v1.067h-15.454V50.13h5.067L230.121,4.879L230.121,4.879z"/>
	<path fill="#460054" d="M247.126,24.902h-5.067v-1.068h5.067c1.013,0,1.995-0.077,2.944-0.233c0.949-0.155,1.742-0.567,2.375-1.235
		V50.13h5.066v1.067h-15.453V50.13h5.065L247.126,24.902L247.126,24.902z M246.557,10.352c0-0.935,0.315-1.735,0.949-2.403
		c0.633-0.667,1.395-1.001,2.28-1.001c0.885,0,1.646,0.334,2.278,1.001c0.635,0.667,0.951,1.468,0.951,2.403
		c0,0.934-0.316,1.735-0.951,2.403c-0.633,0.667-1.395,1.001-2.278,1.001c-0.888,0-1.647-0.334-2.28-1.001
		C246.872,12.087,246.557,11.286,246.557,10.352z"/>
	<path fill="#460054" d="M263.953,24.902h-5.003v-1.068h5.003c0.761,0,1.414-0.01,1.964-0.033c0.548-0.021,1.022-0.077,1.425-0.167
		c0.4-0.089,0.749-0.233,1.045-0.435c0.295-0.201,0.592-0.478,0.887-0.834v6.809h0.127c0.423-0.801,0.93-1.602,1.521-2.403
		c0.592-0.801,1.288-1.534,2.09-2.202c0.803-0.666,1.688-1.201,2.66-1.602c0.973-0.4,2.026-0.602,3.167-0.602
		c1.688,0,3.093,0.211,4.212,0.635c1.118,0.424,2.006,0.979,2.659,1.668c0.653,0.691,1.118,1.492,1.396,2.404
		c0.272,0.912,0.412,1.857,0.412,2.836V50.13h5.002v1.067h-15.328V50.13h5.004V28.305c0-1.869-0.37-3.146-1.108-3.837
		c-0.739-0.688-1.614-1.035-2.628-1.035c-1.352,0-2.533,0.3-3.547,0.901c-1.014,0.601-1.891,1.324-2.628,2.169
		c-0.739,0.846-1.353,1.713-1.837,2.603c-0.486,0.891-0.877,1.625-1.172,2.202V50.13h4.812v1.067H258.95V50.13h5.003V24.902z"/>
</g>
</svg>
